# xmcd CD database file
#
# Track frame offsets:
#	150
#	22162
#	42150
#	64125
#
# Disc length: 1118 seconds
#
# Revision: 0
# Processed by: cddbd v1.5PL3 Copyright (c) Steve Scherf et al.
# Submitted via: CDex 1.50
#
DISCID=31045c04
DTITLE=ビビアン・スー - くちびるの神話
DYEAR=1995
DGENRE=JPop
TTITLE0=くちびるの神話
TTITLE1=一千一秒の秘密
TTITLE2=くちびるの神話 (ｶﾗｵｹ)
TTITLE3=一千一秒の秘密 (ｶﾗｵｹ)
EXTD=YEAR: 1995/10/25
EXTT0=
EXTT1=
EXTT2=
EXTT3=
PLAYORDER=
